<svg viewBox="0 0 50 47.6985" xmlns="http://www.w3.org/2000/svg" xmlns:xlink="http://www.w3.org/1999/xlink" width="50.000000" height="47.698486" fill="none" customFrame="#000000">
	<rect id="icon_tg" width="50.000000" height="47.698505" x="0.000000" y="0.000000" />
	<path id="Shape" d="M50 23.8493C50 37.0208 38.8071 47.6985 25 47.6985C11.1929 47.6985 0 37.0208 0 23.8493C0 10.6777 11.1929 0 25 0C38.8071 0 50 10.6777 50 23.8493ZM16.7411 21.6646C14.2368 22.7077 11.6636 23.7795 9.31068 25.0159C8.08205 25.8741 9.71498 26.4811 11.247 27.0505C11.4905 27.141 11.7315 27.2306 11.958 27.32C12.1466 27.3754 12.3382 27.4336 12.5325 27.4926C14.2364 28.0105 16.1361 28.5879 17.7903 27.7193C20.5076 26.2302 23.0719 24.5087 25.6343 22.7885C26.4738 22.2248 27.313 21.6614 28.1574 21.1063C28.197 21.0821 28.2416 21.0545 28.2904 21.0244C29.0097 20.5795 30.6275 19.5791 30.0291 20.9576C28.6141 22.4339 27.0983 23.7406 25.5745 25.0546C24.5474 25.9401 23.5166 26.8289 22.5103 27.7749C21.634 28.4542 20.7239 29.8203 21.7052 30.7716C23.9655 32.2811 26.2611 33.7539 28.5554 35.226C29.302 35.705 30.0485 36.184 30.7935 36.6642C32.0563 37.6259 34.0297 36.8479 34.3073 35.3451C34.4307 34.6538 34.5547 33.9625 34.6786 33.2712C35.3636 29.4506 36.0489 25.6287 36.6542 21.7957C36.7365 21.1944 36.8297 20.5932 36.923 19.9917C37.1492 18.5338 37.3756 17.0742 37.4464 15.6084C37.2641 14.1457 35.4049 14.4674 34.3703 14.7963C29.0524 16.7267 23.7876 18.8002 18.5436 20.9102C17.9496 21.1612 17.3474 21.4121 16.7411 21.6646Z" fill="rgb(228,228,228)" fill-rule="evenodd" />
</svg>
